first trial
nRows=19
nColumns=38

# SIMM Motion File Header:
name Sujet_04_velo_100.mvnx
datacolumns 38
datarows 19
otherdata 1
range 12.1830 12.4830
endheader
time pelvis_tilt  pelvis_list  pelvis_rotation  pelvis_tx  pelvis_ty  pelvis_tz  hip_flexion_r  hip_adduction_r  hip_rotation_r  knee_angle_r  ankle_angle_r  subtalar_angle_r  mtp_angle_r  hip_flexion_l  hip_adduction_l  hip_rotation_l  knee_angle_l  ankle_angle_l  subtalar_angle_l  mtp_angle_l  lumbar_extension  lumbar_bending  lumbar_rotation  arm_flex_r  arm_add_r  arm_rot_r  elbow_flex_r  pro_sup_r  wrist_flex_r  wrist_dev_r  arm_flex_l  arm_add_l  arm_rot_l  elbow_flex_l  pro_sup_l  wrist_flex_l  wrist_dev_l
12.1830	-16.0192	6.8450	-41.9417	0.0000	1.2500	-0.0000	59.1398	-14.4572	3.7241	84.4406	3.0234	4.3910	0.0000	67.9342	-4.9141	-14.5317	67.8327	8.2664	7.5142	-0.0000	-18.1616	0.9209	-1.9642	72.1791	-6.4865	17.9525	22.6343	70.4784	-26.9962	-11.4827	73.0998	9.8282	14.7667	14.6609	72.2607	-30.1373	-19.2728	
12.2000	-15.9665	6.4307	-42.7108	0.0000	1.2500	-0.0000	62.5213	-14.4256	4.1498	89.9733	3.2540	4.8172	-0.0000	64.1421	-5.0796	-15.3775	62.2797	4.9928	8.2235	0.0000	-18.1934	1.0014	-1.7505	71.9561	-6.1424	17.8204	22.5631	71.1968	-27.0006	-11.4706	72.6989	9.6282	15.1310	14.9090	71.5528	-30.2110	-19.4532	
12.2160	-16.0104	5.9256	-43.3443	0.0000	1.2500	-0.0000	65.9042	-14.4682	4.6393	94.8063	4.3633	4.7616	-0.0000	60.3026	-5.2238	-16.4630	56.9877	1.8427	8.8922	0.0000	-18.2091	1.1496	-1.5284	71.9119	-5.7755	17.8294	22.4662	71.7677	-27.0376	-11.5101	72.3985	9.5555	15.3017	15.0481	71.0055	-30.1789	-19.5943	
12.2330	-16.1160	5.3779	-43.8890	0.0000	1.2500	-0.0000	69.3184	-14.5502	5.1532	99.0033	5.9455	4.3842	0.0000	56.4307	-5.3399	-17.6683	52.0310	-1.2501	9.4939	-0.0000	-18.2112	1.3367	-1.3100	71.9522	-5.3855	17.8984	22.3419	72.2788	-27.0982	-11.5824	72.1495	9.5531	15.3967	15.1421	70.5155	-30.0854	-19.7102	
12.2490	-16.2497	4.9188	-44.3630	0.0000	1.2500	-0.0000	72.5220	-14.5870	5.6806	102.1055	7.7155	3.7456	0.0000	53.0050	-5.4090	-18.6228	48.1291	-3.8845	9.8855	-0.0000	-18.1923	1.4944	-1.1309	72.0027	-5.0323	17.9481	22.1694	72.7441	-27.1719	-11.6642	71.9512	9.5239	15.4544	15.2275	70.0907	-29.9898	-19.8000	
12.2660	-16.4162	4.6111	-44.7848	0.0000	1.2500	-0.0000	75.5524	-14.5688	6.2535	103.9290	9.7355	2.7557	0.0000	50.1046	-5.4858	-19.0974	45.4556	-6.0202	9.9459	0.0000	-18.1357	1.5932	-1.0072	72.0371	-4.7429	17.9457	21.9049	73.1807	-27.2662	-11.7573	71.7871	9.4400	15.4750	15.2857	69.7469	-29.9087	-19.8783	
12.2830	-16.6146	4.3920	-45.1356	0.0000	1.2500	-0.0000	78.3728	-14.4971	6.8522	104.6542	11.9079	1.5705	-0.0000	47.6411	-5.5828	-19.2918	43.8422	-7.6963	9.8003	-0.0000	-18.0567	1.6633	-0.9228	72.0836	-4.4904	17.9243	21.5912	73.5722	-27.3736	-11.8600	71.6730	9.3288	15.4573	15.3385	69.4684	-29.8252	-19.9299	
12.2990	-16.8027	4.2063	-45.3773	0.0000	1.2500	-0.0000	80.6254	-14.3111	7.3861	104.3465	13.7340	0.5246	-0.0000	45.8404	-5.6406	-19.4591	43.4956	-8.6325	9.6831	0.0000	-17.9955	1.7266	-0.8657	72.1499	-4.2550	17.9038	21.3372	73.8819	-27.4625	-11.9445	71.6567	9.1754	15.4366	15.4826	69.2160	-29.7481	-19.9087	
12.3160	-16.9751	4.0041	-45.5208	0.0000	1.2500	-0.0000	82.2704	-13.9478	7.9116	102.9895	15.1069	-0.4475	-0.0000	44.7782	-5.6383	-19.7420	44.5662	-8.5637	9.6527	-0.0000	-17.9666	1.7974	-0.8280	72.2506	-4.0203	17.8664	21.1815	74.1189	-27.5141	-11.9958	71.7752	8.9364	15.4248	15.8145	68.9575	-29.6853	-19.7718	
12.3330	-17.1386	3.8364	-45.5545	0.0000	1.2500	-0.0000	83.3459	-13.4896	8.3846	100.5964	16.1464	-1.3693	0.0000	44.3807	-5.6105	-19.9797	46.9020	-7.7521	9.6417	0.0000	-17.9550	1.8611	-0.8174	72.3717	-3.8025	17.8304	21.0870	74.2738	-27.5473	-12.0288	71.9918	8.6542	15.4096	16.2388	68.7256	-29.6285	-19.5621	
12.3490	-17.2685	3.8009	-45.4055	0.0000	1.2500	-0.0000	83.6155	-13.1108	8.5739	97.2904	16.7451	-1.9394	-0.0000	44.6509	-5.5688	-19.9688	50.2575	-6.7097	9.7056	-0.0000	-17.9562	1.8956	-0.8458	72.4789	-3.6301	17.8694	21.0497	74.2821	-27.5863	-12.0600	72.2443	8.4422	15.3900	16.5642	68.5786	-29.5628	-19.3625	
12.3660	-17.3641	3.9469	-45.0075	0.0000	1.2500	-0.0000	82.9675	-12.8438	8.3828	92.9732	16.8663	-2.0191	-0.0000	45.6739	-5.4713	-19.6281	54.7827	-5.4337	9.8791	-0.0000	-17.9774	1.8915	-0.9261	72.5834	-3.4979	18.0599	21.0723	74.0826	-27.6471	-12.1016	72.5411	8.3444	15.3403	16.7125	68.5583	-29.4798	-19.1960	
12.3830	-17.4236	4.2261	-44.4256	0.0000	1.2500	-0.0000	81.5217	-12.6495	7.9098	87.8355	16.5840	-1.8287	0.0000	47.3652	-5.3367	-19.0550	60.3393	-3.9318	10.1477	0.0000	-18.0118	1.8589	-1.0454	72.6743	-3.4122	18.3257	21.1505	73.7368	-27.7137	-12.1414	72.8742	8.3181	15.2867	16.7622	68.6224	-29.3887	-19.0399	
12.4000	-17.4208	4.5880	-43.7837	0.0000	1.2500	-0.0000	79.3894	-12.5908	7.2115	82.4014	15.9640	-1.5670	-0.0000	49.4758	-5.2642	-18.3123	66.2411	-2.7348	10.5022	0.0000	-18.0343	1.8055	-1.1772	72.6842	-3.4178	18.5117	21.2713	73.3640	-27.7626	-12.1592	73.1559	8.3472	15.3056	16.7562	68.7028	-29.3013	-18.9082	
12.4160	-17.3359	5.0486	-43.1117	0.0000	1.2500	-0.0000	76.4406	-12.6733	6.2219	76.6002	15.0004	-1.2230	-0.0000	52.0208	-5.2851	-17.3191	72.4867	-2.2444	11.0508	0.0000	-18.0384	1.7250	-1.3179	72.5935	-3.5395	18.5456	21.4425	73.0096	-27.7899	-12.1474	73.3605	8.4228	15.4832	16.7106	68.7178	-29.2013	-18.8181	
12.4330	-17.1846	5.5887	-42.3820	0.0000	1.2500	-0.0000	72.8002	-12.8372	4.9550	70.4805	13.6864	-0.7538	-0.0000	54.9982	-5.3214	-16.1725	79.0566	-2.0628	11.6946	-0.0000	-18.0315	1.6227	-1.4708	72.4206	-3.7506	18.4987	21.6572	72.6280	-27.7994	-12.1136	73.5131	8.5546	15.7325	16.6093	68.7489	-29.1051	-18.7531	
12.4490	-16.9992	6.1058	-41.6326	0.0000	1.2500	-0.0000	68.9558	-13.0626	3.5972	64.6525	12.0818	-0.2706	0.0000	58.1286	-5.3435	-15.1823	85.2348	-1.5113	12.0840	0.0000	-18.0091	1.5226	-1.6196	72.1547	-4.0176	18.4312	21.8819	72.2014	-27.7790	-12.0601	73.6014	8.7525	15.8700	16.4447	68.9721	-29.0734	-18.6767	
12.4660	-16.7624	6.5613	-40.8382	0.0000	1.2500	-0.0000	64.8740	-13.3856	2.1470	59.0840	10.1269	0.2568	-0.0000	61.4112	-5.3523	-14.5070	90.9786	-0.3719	12.0778	0.0000	-17.9634	1.4371	-1.7528	71.7317	-4.3608	18.3607	22.1183	71.6772	-27.7136	-11.9782	73.5875	9.0638	15.8290	16.1804	69.4831	-29.1370	-18.5568	
12.4830	-16.4923	6.9916	-40.0251	0.0000	1.2500	-0.0000	60.5750	-13.7244	0.5715	53.7496	7.8655	0.8247	0.0000	64.8389	-5.3683	-13.9945	96.3386	1.1420	11.8067	0.0000	-17.9022	1.3526	-1.8817	71.2139	-4.7577	18.2691	22.3644	71.1071	-27.6178	-11.8766	73.5065	9.4374	15.6749	15.8451	70.1868	-29.2645	-18.4247	
